<svg width="1600" height="900" viewBox="0 0 1600 900" xmlns="http://www.w3.org/2000/svg" role="img" aria-label="Placeholder image">
  <rect width="1600" height="900" fill="#f6f6f4"/>
  <rect x="70" y="70" width="1460" height="760" rx="24" fill="#ffffff" stroke="#e8e8e3" stroke-width="4"/>
  <circle cx="180" cy="180" r="54" fill="#f6efe8" stroke="#d67c2d" stroke-width="4"/>
  <path d="M150 180c15-28 30-28 45 0 15 28 30 28 45 0" fill="none" stroke="#d67c2d" stroke-width="8" stroke-linecap="round"/>
  <rect x="280" y="145" width="500" height="26" rx="12" fill="#262f3d" opacity="0.9"/>
  <rect x="280" y="190" width="360" height="18" rx="9" fill="#505a67" opacity="0.75"/>
  <rect x="120" y="290" width="1360" height="470" rx="18" fill="#faf9f6" stroke="#ece9e2" stroke-width="3"/>
  <rect x="170" y="350" width="580" height="28" rx="10" fill="#262f3d" opacity="0.85"/>
  <rect x="170" y="396" width="460" height="18" rx="9" fill="#5f6772" opacity="0.65"/>
  <rect x="170" y="438" width="360" height="18" rx="9" fill="#5f6772" opacity="0.5"/>
  <rect x="840" y="336" width="560" height="340" rx="16" fill="#f3f1eb" stroke="#e8e4dc" stroke-width="3"/>
  <rect x="890" y="390" width="460" height="16" rx="8" fill="#6a717a" opacity="0.55"/>
  <rect x="890" y="430" width="390" height="16" rx="8" fill="#6a717a" opacity="0.45"/>
  <rect x="890" y="470" width="290" height="16" rx="8" fill="#6a717a" opacity="0.4"/>
  <rect x="70" y="820" width="1460" height="10" fill="#d67c2d"/>
</svg>
